<svg width="1102" height="715" viewBox="0 0 1102 715" fill="none" xmlns="http://www.w3.org/2000/svg">
<rect x="238.586" y="247.723" width="2.73802" height="2.73802" transform="rotate(45 238.586 247.723)" fill="#8EFF8B" fill-opacity="0.5"/>
<rect x="267.656" y="302.251" width="5.52977" height="5.52977" transform="rotate(45 267.656 302.251)" fill="#8EFF8B" fill-opacity="0.5"/>
<rect width="2.57312" height="2.57312" transform="matrix(-0.707129 -0.707085 -0.707129 0.707085 368.85 306.161)" fill="#8EFF8B" fill-opacity="0.5"/>
<rect x="326.378" y="354.879" width="2.73802" height="2.73802" transform="rotate(45 326.378 354.879)" fill="#8EFF8B" fill-opacity="0.5"/>
<rect x="178.285" y="241.236" width="2.73802" height="2.73802" transform="rotate(45 178.285 241.236)" fill="#8EFF8B" fill-opacity="0.5"/>
<rect x="192.893" y="149.075" width="2.73802" height="2.73802" transform="rotate(45 192.893 149.075)" fill="#8EFF8B"/>
<rect width="1.9111" height="1.9111" transform="matrix(0.707077 0.707136 -0.707077 0.707136 234.714 202.874)" fill="#8EFF8B"/>
<rect x="211.403" y="193.318" width="3.56551" height="3.56551" transform="rotate(45 211.403 193.318)" fill="#8EFF8B"/>
<rect x="86.5352" y="560.598" width="3.80692" height="3.80692" transform="rotate(45 86.5352 560.598)" fill="#8EFF8B" fill-opacity="0.5"/>
<rect width="7.68854" height="7.68854" transform="matrix(0.707114 0.707099 -0.707114 0.707099 126.954 636.412)" fill="#8EFF8B" fill-opacity="0.5"/>
<rect width="3.57764" height="3.57764" transform="matrix(-0.707107 -0.707107 -0.707107 0.707107 267.653 641.849)" fill="#8EFF8B" fill-opacity="0.5"/>
<rect width="3.80692" height="3.80692" transform="matrix(0.707122 0.707092 -0.707122 0.707092 208.6 709.588)" fill="#8EFF8B" fill-opacity="0.5"/>
<rect width="3.80692" height="3.80692" transform="matrix(0.707122 0.707092 -0.707122 0.707092 2.69189 551.579)" fill="#8EFF8B" fill-opacity="0.5"/>
<rect x="23.0028" y="423.44" width="3.80692" height="3.80692" transform="rotate(45 23.0028 423.44)" fill="#8EFF8B"/>
<rect x="81.1515" y="498.241" width="2.66065" height="2.66065" transform="rotate(45 81.1515 498.241)" fill="#8EFF8B"/>
<rect width="4.95745" height="4.95745" transform="matrix(0.707118 0.707095 -0.707118 0.707095 48.7386 484.954)" fill="#8EFF8B"/>
<rect x="914.571" y="351.364" width="3.25833" height="3.25833" transform="rotate(-32.8977 914.571 351.364)" fill="#8EFF8B" fill-opacity="0.5"/>
<rect x="985.272" y="331.143" width="6.5806" height="6.58059" transform="rotate(-32.8977 985.272 331.143)" fill="#8EFF8B" fill-opacity="0.5"/>
<rect width="3.06209" height="3.06209" transform="matrix(-0.839642 0.54314 0.54314 0.839642 1015.07 214.372)" fill="#8EFF8B" fill-opacity="0.5"/>
<rect width="3.25833" height="3.25833" transform="matrix(0.839667 -0.543102 0.543179 0.839617 1061.16 275.947)" fill="#8EFF8B" fill-opacity="0.5"/>
<rect x="891.979" y="419.912" width="3.25833" height="3.25833" transform="rotate(-32.8977 891.979 419.912)" fill="#8EFF8B" fill-opacity="0.5"/>
<rect x="788.387" y="379.921" width="3.25833" height="3.25833" transform="rotate(-32.8977 788.387 379.921)" fill="#8EFF8B"/>
<rect width="2.27427" height="2.27427" transform="matrix(0.839624 -0.543168 0.543113 0.83966 861.421 344.681)" fill="#8EFF8B"/>
<rect width="4.24306" height="4.24306" transform="matrix(0.839652 -0.543126 0.543155 0.839632 844.484 369.421)" fill="#8EFF8B"/>
<rect x="734.401" y="248.855" width="6.58059" height="6.5806" transform="rotate(9.69009 734.401 248.855)" fill="#8EFF8B" fill-opacity="0.5"/>
<rect width="3.06209" height="3.06209" transform="matrix(-0.985732 -0.168319 -0.168319 0.985733 835.363 183.047)" fill="#8EFF8B" fill-opacity="0.5"/>
<rect x="827.629" y="259.574" width="3.25833" height="3.25833" transform="rotate(9.69009 827.629 259.574)" fill="#8EFF8B" fill-opacity="0.5"/>
<rect x="605.646" y="251.077" width="3.25833" height="3.25833" transform="rotate(9.69009 605.646 251.077)" fill="#8EFF8B" fill-opacity="0.5"/>
<rect x="556.44" y="151.533" width="3.25833" height="3.25833" transform="rotate(9.69009 556.44 151.533)" fill="#8EFF8B"/>
<rect width="2.27427" height="2.27427" transform="matrix(0.985735 0.168305 -0.168333 0.98573 634.058 175.01)" fill="#8EFF8B"/>
<rect x="604.848" y="181.764" width="4.24306" height="4.24306" transform="rotate(9.69009 604.848 181.764)" fill="#8EFF8B"/>
</svg>
